<mxfile host="app.diagrams.net" modified="2021-07-10T20:39:57.945Z" agent="5.0 (X11)" etag="sZZIqB4CwJ2tkSvEm40X" version="14.8.5" type="github">
  <diagram id="p7oysk6ndTNmlZGjdjdw" name="Page-1">
    <mxGraphModel dx="1422" dy="793" grid="1" gridSize="10" guides="1" tooltips="1" connect="1" arrows="1" fold="1" page="1" pageScale="1" pageWidth="827" pageHeight="1169" math="0" shadow="0">
      <root>
        <mxCell id="0" />
        <mxCell id="1" parent="0" />
        <mxCell id="ecHuSdsquGclo5wVPDqu-1" value="ARTIFICIAL" style="rounded=0;whiteSpace=wrap;html=1;gradientColor=#d5739d;fillColor=#e6d0de;strokeColor=#996185;" parent="1" vertex="1">
          <mxGeometry x="150" y="40" width="180" height="60" as="geometry" />
        </mxCell>
        <mxCell id="ecHuSdsquGclo5wVPDqu-2" value="&lt;div&gt;Sistemas de &lt;br&gt;&lt;/div&gt;&lt;div&gt;Representación del Conocimiento y &lt;br&gt;&lt;/div&gt;&lt;div&gt;Razonamiento Automático &lt;br&gt;&lt;/div&gt;" style="shape=parallelogram;perimeter=parallelogramPerimeter;whiteSpace=wrap;html=1;fixedSize=1;gradientColor=#d5739d;fillColor=#e6d0de;strokeColor=#996185;" parent="1" vertex="1">
          <mxGeometry x="127.5" y="170" width="200" height="80" as="geometry" />
        </mxCell>
        <mxCell id="F7p95SuBvXbChNVBSlAI-1" value="Sistemas de Aprendizaje Automático" style="shape=parallelogram;perimeter=parallelogramPerimeter;whiteSpace=wrap;html=1;fixedSize=1;gradientColor=#7ea6e0;fillColor=#dae8fc;strokeColor=#6c8ebf;" parent="1" vertex="1">
          <mxGeometry x="132" y="340" width="200" height="70" as="geometry" />
        </mxCell>
        <mxCell id="F7p95SuBvXbChNVBSlAI-3" value="&lt;div&gt;Procesamiento del&lt;/div&gt;&lt;div&gt; Lenguaje Natural y&lt;/div&gt;&lt;div&gt;Textmining&lt;br&gt;&lt;/div&gt;" style="shape=parallelogram;perimeter=parallelogramPerimeter;whiteSpace=wrap;html=1;fixedSize=1;gradientColor=#ffd966;fillColor=#fff2cc;strokeColor=#d6b656;" parent="1" vertex="1">
          <mxGeometry x="130.5" y="410" width="199.5" height="70" as="geometry" />
        </mxCell>
        <mxCell id="F7p95SuBvXbChNVBSlAI-4" value="&lt;div&gt;Sistemas de Interacción&lt;/div&gt;&lt;div&gt;con el Entorno,&lt;br&gt;&lt;/div&gt;&lt;div&gt;Simulación Social, &lt;br&gt;&lt;/div&gt;&lt;div&gt;Agentes, &lt;br&gt;&lt;/div&gt;&lt;div&gt;Redes Neuronales, y &lt;br&gt;&lt;/div&gt;&lt;div&gt;Colectivos Inteligentes&lt;br&gt;&lt;/div&gt;" style="shape=parallelogram;perimeter=parallelogramPerimeter;whiteSpace=wrap;html=1;fixedSize=1;" parent="1" vertex="1">
          <mxGeometry x="131" y="480" width="199" height="110" as="geometry" />
        </mxCell>
        <mxCell id="w5-nC1y-dMxMbd4l77DF-1" value="BLOCKCHAIN-CRYPTOCURRENCIES" style="rounded=0;whiteSpace=wrap;html=1;fillColor=#fff2cc;strokeColor=#d6b656;gradientColor=#ffd966;" parent="1" vertex="1">
          <mxGeometry x="154" y="650" width="166" height="60" as="geometry" />
        </mxCell>
        <mxCell id="w5-nC1y-dMxMbd4l77DF-2" value="&lt;div&gt;Information retrieval y&lt;br&gt;&lt;/div&gt;&lt;div&gt;Gestión de Grandes &lt;br&gt;&lt;/div&gt;&lt;div&gt;Volúmenes de Datos&lt;/div&gt;(BigData)" style="shape=parallelogram;perimeter=parallelogramPerimeter;whiteSpace=wrap;html=1;fixedSize=1;gradientColor=#97d077;fillColor=#d5e8d4;strokeColor=#82b366;" parent="1" vertex="1">
          <mxGeometry x="139.5" y="780" width="185" height="80" as="geometry" />
        </mxCell>
        <mxCell id="w5-nC1y-dMxMbd4l77DF-3" value="Criptografía" style="shape=parallelogram;perimeter=parallelogramPerimeter;whiteSpace=wrap;html=1;fixedSize=1;" parent="1" vertex="1">
          <mxGeometry x="144.5" y="860" width="180" height="50" as="geometry" />
        </mxCell>
        <mxCell id="w5-nC1y-dMxMbd4l77DF-8" value="Monedas Digitales" style="shape=parallelogram;perimeter=parallelogramPerimeter;whiteSpace=wrap;html=1;fixedSize=1;" parent="1" vertex="1">
          <mxGeometry x="146.5" y="910" width="176" height="60" as="geometry" />
        </mxCell>
        <mxCell id="w5-nC1y-dMxMbd4l77DF-9" value="Contratos Electrónicos" style="shape=parallelogram;perimeter=parallelogramPerimeter;whiteSpace=wrap;html=1;fixedSize=1;fillColor=#d0cee2;strokeColor=#56517e;" parent="1" vertex="1">
          <mxGeometry x="140.5" y="970" width="180" height="60" as="geometry" />
        </mxCell>
        <mxCell id="w5-nC1y-dMxMbd4l77DF-10" value="Mining versus Trust" style="shape=parallelogram;perimeter=parallelogramPerimeter;whiteSpace=wrap;html=1;fixedSize=1;" parent="1" vertex="1">
          <mxGeometry x="144.5" y="1030" width="180" height="60" as="geometry" />
        </mxCell>
        <mxCell id="w5-nC1y-dMxMbd4l77DF-12" value="LEARNING" style="rounded=0;whiteSpace=wrap;html=1;gradientColor=#7ea6e0;fillColor=#dae8fc;strokeColor=#6c8ebf;" parent="1" vertex="1">
          <mxGeometry x="520" y="40" width="190" height="60" as="geometry" />
        </mxCell>
        <mxCell id="w5-nC1y-dMxMbd4l77DF-14" value="&lt;div&gt;&lt;br&gt;&lt;/div&gt;&lt;div&gt;Information retrieval y &lt;br&gt;&lt;/div&gt;&lt;div&gt;Gestión de Grandes &lt;br&gt;&lt;/div&gt;&lt;div&gt;Volúmenes de Datos&lt;/div&gt;&lt;div&gt;(BigData)&lt;br&gt;&lt;/div&gt;&lt;div&gt;&lt;br&gt;&lt;/div&gt;" style="shape=parallelogram;perimeter=parallelogramPerimeter;whiteSpace=wrap;html=1;fixedSize=1;gradientColor=#97d077;fillColor=#d5e8d4;strokeColor=#82b366;" parent="1" vertex="1">
          <mxGeometry x="496.5" y="250" width="212.5" height="80" as="geometry" />
        </mxCell>
        <mxCell id="w5-nC1y-dMxMbd4l77DF-17" value="&lt;div&gt;&lt;br&gt;&lt;/div&gt;&lt;div&gt;Algoritmos Avanzados para &lt;br&gt;&lt;/div&gt;&lt;div&gt;Machine Learning&lt;/div&gt;&lt;div&gt;&lt;br&gt;&lt;/div&gt;" style="shape=parallelogram;perimeter=parallelogramPerimeter;whiteSpace=wrap;html=1;fixedSize=1;" parent="1" vertex="1">
          <mxGeometry x="502" y="430" width="210" height="60" as="geometry" />
        </mxCell>
        <mxCell id="w5-nC1y-dMxMbd4l77DF-18" value="&lt;div&gt;Sistemas de Aprendizaje Automático: &lt;br&gt;&lt;/div&gt;&lt;div&gt;Entornos de Desarrollo&lt;/div&gt;&lt;div&gt;para Machine Learning y Algoritmos Básicos&lt;br&gt;&lt;/div&gt;" style="shape=parallelogram;perimeter=parallelogramPerimeter;whiteSpace=wrap;html=1;fixedSize=1;gradientColor=#7ea6e0;fillColor=#dae8fc;strokeColor=#6c8ebf;" parent="1" vertex="1">
          <mxGeometry x="500" y="330" width="209" height="100" as="geometry" />
        </mxCell>
        <mxCell id="w5-nC1y-dMxMbd4l77DF-19" value="&lt;div&gt;Sistemas de &lt;br&gt;&lt;/div&gt;&lt;div&gt;Representación del Conocimiento y&lt;/div&gt;&lt;div&gt;Razonamiento Automático&lt;br&gt;&lt;/div&gt;" style="shape=parallelogram;perimeter=parallelogramPerimeter;whiteSpace=wrap;html=1;fixedSize=1;gradientColor=#d5739d;fillColor=#e6d0de;strokeColor=#996185;" parent="1" vertex="1">
          <mxGeometry x="502" y="170" width="208" height="80" as="geometry" />
        </mxCell>
        <mxCell id="w5-nC1y-dMxMbd4l77DF-20" value="&lt;div&gt;Procesamiento del Lenguaje Natural y&lt;/div&gt;&lt;div&gt;Textmining&lt;br&gt;&lt;/div&gt;" style="shape=parallelogram;perimeter=parallelogramPerimeter;whiteSpace=wrap;html=1;fixedSize=1;gradientColor=#ffd966;fillColor=#fff2cc;strokeColor=#d6b656;" parent="1" vertex="1">
          <mxGeometry x="497.5" y="490" width="212.5" height="70" as="geometry" />
        </mxCell>
        <mxCell id="6JA4XhRQ41o66r_8hxrZ-1" value="COMPUTERS4HEALTH" style="rounded=0;whiteSpace=wrap;html=1;fillColor=#cdeb8b;strokeColor=#36393d;" parent="1" vertex="1">
          <mxGeometry x="511" y="640" width="210.5" height="60" as="geometry" />
        </mxCell>
        <mxCell id="6JA4XhRQ41o66r_8hxrZ-2" value="Mobile Apps Dev" style="shape=parallelogram;perimeter=parallelogramPerimeter;whiteSpace=wrap;html=1;fixedSize=1;" parent="1" vertex="1">
          <mxGeometry x="489.5" y="770" width="230" height="60" as="geometry" />
        </mxCell>
        <mxCell id="6JA4XhRQ41o66r_8hxrZ-3" value="Social Network Dev" style="shape=parallelogram;perimeter=parallelogramPerimeter;whiteSpace=wrap;html=1;fixedSize=1;" parent="1" vertex="1">
          <mxGeometry x="487.75" y="830" width="230" height="60" as="geometry" />
        </mxCell>
        <mxCell id="6JA4XhRQ41o66r_8hxrZ-4" value="Sistemas de Aprendizaje Automático" style="shape=parallelogram;perimeter=parallelogramPerimeter;whiteSpace=wrap;html=1;fixedSize=1;gradientColor=#7ea6e0;fillColor=#dae8fc;strokeColor=#6c8ebf;" parent="1" vertex="1">
          <mxGeometry x="487.75" y="890" width="230" height="60" as="geometry" />
        </mxCell>
        <mxCell id="6JA4XhRQ41o66r_8hxrZ-7" value="Labs informatics" style="shape=parallelogram;perimeter=parallelogramPerimeter;whiteSpace=wrap;html=1;fixedSize=1;" parent="1" vertex="1">
          <mxGeometry x="495" y="1030" width="220" height="60" as="geometry" />
        </mxCell>
        <mxCell id="6JA4XhRQ41o66r_8hxrZ-8" value="&lt;div&gt;&lt;br&gt;&lt;/div&gt;&lt;div&gt;Information retrieval y&lt;br&gt;&lt;/div&gt;&lt;div&gt;Gestión de Grandes &lt;br&gt;&lt;/div&gt;&lt;div&gt;Volúmenes de Datos&lt;/div&gt;&lt;div&gt;(BigData)&lt;br&gt;&lt;/div&gt;&lt;div&gt;&lt;br&gt;&lt;/div&gt;" style="shape=parallelogram;perimeter=parallelogramPerimeter;whiteSpace=wrap;html=1;fixedSize=1;gradientColor=#97d077;fillColor=#d5e8d4;strokeColor=#82b366;" parent="1" vertex="1">
          <mxGeometry x="492.5" y="950" width="224" height="80" as="geometry" />
        </mxCell>
        <mxCell id="6JA4XhRQ41o66r_8hxrZ-11" value="&lt;div&gt;&lt;br&gt;&lt;/div&gt;&lt;div&gt;Information retrieval y&lt;br&gt;&lt;/div&gt;&lt;div&gt;Gestión de Grandes &lt;br&gt;&lt;/div&gt;&lt;div&gt;Volúmenes de Datos&lt;/div&gt;&lt;div&gt;(BigData)&lt;br&gt;&lt;/div&gt;&lt;div&gt;&lt;br&gt;&lt;/div&gt;" style="shape=parallelogram;perimeter=parallelogramPerimeter;whiteSpace=wrap;html=1;fixedSize=1;gradientColor=#97d077;fillColor=#d5e8d4;strokeColor=#82b366;" parent="1" vertex="1">
          <mxGeometry x="134" y="250" width="199" height="90" as="geometry" />
        </mxCell>
        <mxCell id="goHpozcBcwSDvARHjaSD-1" value="&lt;div&gt;Filósofía y Ética en&lt;/div&gt;&lt;div&gt;la Inteligencia Artificial&lt;br&gt;&lt;/div&gt;" style="shape=parallelogram;perimeter=parallelogramPerimeter;whiteSpace=wrap;html=1;fixedSize=1;" vertex="1" parent="1">
          <mxGeometry x="130" y="100" width="200" height="70" as="geometry" />
        </mxCell>
        <mxCell id="goHpozcBcwSDvARHjaSD-2" value="&lt;div&gt;Filósofía y Ética en&lt;/div&gt;&lt;div&gt;el Aprendizaje Automático&lt;br&gt;&lt;/div&gt;" style="shape=parallelogram;perimeter=parallelogramPerimeter;whiteSpace=wrap;html=1;fixedSize=1;" vertex="1" parent="1">
          <mxGeometry x="500" y="100" width="210" height="70" as="geometry" />
        </mxCell>
        <mxCell id="goHpozcBcwSDvARHjaSD-3" value="&lt;div&gt;Filósofía y Ética en&lt;/div&gt;&lt;div&gt;las criptomonedas&lt;br&gt;&lt;/div&gt;" style="shape=parallelogram;perimeter=parallelogramPerimeter;whiteSpace=wrap;html=1;fixedSize=1;" vertex="1" parent="1">
          <mxGeometry x="133" y="710" width="187" height="70" as="geometry" />
        </mxCell>
        <mxCell id="goHpozcBcwSDvARHjaSD-4" value="&lt;div&gt;Filósofía y Ética en el&lt;/div&gt;&lt;div&gt;uso de computadores &lt;br&gt;&lt;/div&gt;&lt;div&gt;en servicios de salud&lt;br&gt;&lt;/div&gt;" style="shape=parallelogram;perimeter=parallelogramPerimeter;whiteSpace=wrap;html=1;fixedSize=1;" vertex="1" parent="1">
          <mxGeometry x="492" y="700" width="230" height="70" as="geometry" />
        </mxCell>
      </root>
    </mxGraphModel>
  </diagram>
</mxfile>
